<svg width="1176" height="1465" viewBox="0 0 1176 1465" fill="none" xmlns="http://www.w3.org/2000/svg">
<g clip-path="url(#clip0_40_90046)">
<mask id="mask0_40_90046" style="mask-type:luminance" maskUnits="userSpaceOnUse" x="0" y="0" width="1176" height="1465">
<path d="M1176 0H0V1465H1176V0Z" fill="white"/>
</mask>
<g mask="url(#mask0_40_90046)">
<mask id="mask1_40_90046" style="mask-type:luminance" maskUnits="userSpaceOnUse" x="0" y="0" width="1176" height="1465">
<path d="M1176 0H0V1465H1176V0Z" fill="white"/>
</mask>
<g mask="url(#mask1_40_90046)">
<mask id="mask2_40_90046" style="mask-type:luminance" maskUnits="userSpaceOnUse" x="0" y="0" width="1176" height="1465">
<path d="M1176 0H0V1465H1176V0Z" fill="white"/>
</mask>
<g mask="url(#mask2_40_90046)">
<mask id="mask3_40_90046" style="mask-type:luminance" maskUnits="userSpaceOnUse" x="0" y="0" width="1176" height="1465">
<path d="M1176 0H0V1465H1176V0Z" fill="white"/>
</mask>
<g mask="url(#mask3_40_90046)">
<mask id="mask4_40_90046" style="mask-type:luminance" maskUnits="userSpaceOnUse" x="0" y="0" width="1176" height="1465">
<path d="M1176 0H0V1465H1176V0Z" fill="white"/>
</mask>
<g mask="url(#mask4_40_90046)">
<mask id="mask5_40_90046" style="mask-type:luminance" maskUnits="userSpaceOnUse" x="0" y="0" width="1176" height="1465">
<path d="M1176 0H0V1465H1176V0Z" fill="white"/>
</mask>
<g mask="url(#mask5_40_90046)">
<mask id="mask6_40_90046" style="mask-type:luminance" maskUnits="userSpaceOnUse" x="0" y="0" width="1176" height="1465">
<path d="M1176 0H0V1465H1176V0Z" fill="white"/>
</mask>
<g mask="url(#mask6_40_90046)">
<mask id="mask7_40_90046" style="mask-type:luminance" maskUnits="userSpaceOnUse" x="0" y="0" width="1176" height="1465">
<path d="M1176 0H0V1465H1176V0Z" fill="white"/>
</mask>
<g mask="url(#mask7_40_90046)">
<mask id="mask8_40_90046" style="mask-type:luminance" maskUnits="userSpaceOnUse" x="0" y="0" width="1176" height="1465">
<path d="M1176 0H0V1465H1176V0Z" fill="white"/>
</mask>
<g mask="url(#mask8_40_90046)">
<mask id="mask9_40_90046" style="mask-type:luminance" maskUnits="userSpaceOnUse" x="0" y="0" width="1176" height="1465">
<path d="M1176 0H0V1465H1176V0Z" fill="white"/>
</mask>
<g mask="url(#mask9_40_90046)">
<mask id="mask10_40_90046" style="mask-type:luminance" maskUnits="userSpaceOnUse" x="0" y="0" width="1176" height="1465">
<path d="M1176 0H0V1465H1176V0Z" fill="white"/>
</mask>
<g mask="url(#mask10_40_90046)">
<mask id="mask11_40_90046" style="mask-type:luminance" maskUnits="userSpaceOnUse" x="0" y="0" width="1176" height="1465">
<path d="M1176 0H0V1465H1176V0Z" fill="white"/>
</mask>
<g mask="url(#mask11_40_90046)">
<mask id="mask12_40_90046" style="mask-type:luminance" maskUnits="userSpaceOnUse" x="0" y="0" width="1176" height="1465">
<path d="M1176 0H0V1465H1176V0Z" fill="white"/>
</mask>
<g mask="url(#mask12_40_90046)">
<mask id="mask13_40_90046" style="mask-type:luminance" maskUnits="userSpaceOnUse" x="0" y="0" width="1176" height="1465">
<path d="M1176 0H0V1465H1176V0Z" fill="white"/>
</mask>
<g mask="url(#mask13_40_90046)">
<mask id="mask14_40_90046" style="mask-type:luminance" maskUnits="userSpaceOnUse" x="0" y="0" width="1176" height="1465">
<path d="M1176 0.5H0V1464.5H1176V0.5Z" fill="white"/>
</mask>
<g mask="url(#mask14_40_90046)">
<mask id="mask15_40_90046" style="mask-type:luminance" maskUnits="userSpaceOnUse" x="0" y="0" width="1176" height="1465">
<path d="M1176 0.5H0V1464.5H1176V0.5Z" fill="white"/>
</mask>
<g mask="url(#mask15_40_90046)">
<path d="M39 47.5H1137V883.5H667V1364H39V883.5V47.5Z" fill="white"/>
<path d="M699 0.5H433V105.5H699V0.5Z" fill="#5D6162"/>
<path d="M1176 0.5H1034V105.5H1176V0.5Z" fill="#5D6162"/>
<path d="M97 0.5H0V105.5H97V0.5Z" fill="#5D6162"/>
<path d="M78 105.5H0V1397.5H78V105.5Z" fill="#5D6162"/>
<path d="M1176 86.5H1098V905.5H1176V86.5Z" fill="#5D6162"/>
<path d="M78 1324.5V1397.5H378V1324.5H78Z" fill="#5D6162"/>
<path d="M564 1324.5V1397.5H687V1324.5H564Z" fill="#5D6162"/>
<path d="M643 861.5V905.5H1098V861.5H643Z" fill="#5D6162"/>
<path d="M687 905.5H643V1324.5H687V905.5Z" fill="#5D6162"/>
<path d="M670 581.5H643V861.5H670V581.5Z" fill="#5D6162"/>
<path d="M526 581.5V608.5H643V581.5H526Z" fill="#5D6162"/>
<path d="M368 914.5H341V1037.5H368V914.5Z" fill="#5D6162"/>
<path d="M78 1257V1271H144V1257H78Z" fill="#5D6162"/>
<path d="M130 1332H144V1257H130V1332Z" fill="#5D6162"/>
<path d="M141 1283V1298H341V1283H141Z" fill="#5D6162"/>
<path d="M106 1056H91V1264H106V1056Z" fill="#5D6162"/>
<path d="M78 1055.5V1070.5H106V1055.5H78Z" fill="#5D6162"/>
<path d="M368 1172.5H341V1324.5H368V1172.5Z" fill="#5D6162"/>
<path d="M78 887.5V914.5H368V887.5H78Z" fill="#5D6162"/>
<path fill-rule="evenodd" clip-rule="evenodd" d="M433 24.5V76.5H97V24.5H433Z" fill="white" stroke="#5A656F" stroke-width="1.0001" stroke-miterlimit="22.9256"/>
<path d="M97 24.5059V47.4596H110.399V24.5059H97Z" fill="white" stroke="#5A656F" stroke-width="1.0001" stroke-miterlimit="22.9256"/>
<path d="M110.395 47.459H419.47" stroke="#5A656F" stroke-width="1.0001" stroke-miterlimit="22.9256"/>
<path d="M110.395 35.4258H419.47" stroke="#5A656F" stroke-width="1.0001" stroke-miterlimit="22.9256"/>
<path d="M419.449 24.5059V47.4596H432.848V24.5059H419.449Z" fill="white" stroke="#5A656F" stroke-width="1.0001" stroke-miterlimit="22.9256"/>
<path d="M642.334 609.164H526.664V722.834H642.334V609.164Z" fill="white" stroke="#586168" stroke-width="1.33"/>
<path fill-rule="evenodd" clip-rule="evenodd" d="M1035 24.5V76.5H699V24.5H1035Z" fill="white" stroke="#5A656F" stroke-width="1.0001" stroke-miterlimit="22.9256"/>
<path d="M699 24.5059V47.4596H712.399V24.5059H699Z" fill="white" stroke="#5A656F" stroke-width="1.0001" stroke-miterlimit="22.9256"/>
<path d="M712.395 47.459H1021.47" stroke="#5A656F" stroke-width="1.0001" stroke-miterlimit="22.9256"/>
<path d="M712.395 35.4258H1021.47" stroke="#5A656F" stroke-width="1.0001" stroke-miterlimit="22.9256"/>
<path d="M1021.45 24.5059V47.4596H1034.85V24.5059H1021.45Z" fill="white" stroke="#5A656F" stroke-width="1.0001" stroke-miterlimit="22.9256"/>
<path fill-rule="evenodd" clip-rule="evenodd" d="M231 914.504H341V1024.5H231V914.504Z" fill="white"/>
<path d="M231 914.504H341V1024.5H231V914.504Z" stroke="#586168" stroke-width="1.33341" stroke-miterlimit="22.9256"/>
<path fill-rule="evenodd" clip-rule="evenodd" d="M285.109 930.783C303.073 930.783 317.636 945.346 317.636 963.305C317.636 981.274 303.073 995.837 285.109 995.837C267.145 995.837 252.582 981.274 252.582 963.305C252.582 945.346 267.145 930.783 285.109 930.783Z" fill="white"/>
<path d="M285.109 930.783C303.073 930.783 317.636 945.346 317.636 963.305C317.636 981.274 303.073 995.837 285.109 995.837C267.145 995.837 252.582 981.274 252.582 963.305C252.582 945.346 267.145 930.783 285.109 930.783Z" stroke="#586168" stroke-width="1.33341" stroke-miterlimit="22.9256"/>
<path d="M231 1012.67H341" stroke="#586168" stroke-width="1.33341" stroke-miterlimit="22.9256"/>
<path d="M253.012 961.08C281.089 993.339 282.614 933.598 317.22 965.196" stroke="#586168" stroke-width="1.33341" stroke-miterlimit="22.9256" stroke-linecap="round" stroke-linejoin="round"/>
<path fill-rule="evenodd" clip-rule="evenodd" d="M231 914.5H78V1056.98H231V914.5Z" fill="white"/>
<path d="M231 914.5H78V1056.98H231V914.5Z" stroke="#586168" stroke-width="1.33341" stroke-miterlimit="22.9256"/>
<path fill-rule="evenodd" clip-rule="evenodd" d="M213.022 925.076H95.9694C92.3322 925.076 89.3594 927.456 89.3594 930.363V1041.11C89.3594 1044.02 92.3322 1046.39 95.9694 1046.39H213.022C216.659 1046.39 219.636 1044.02 219.636 1041.11V930.363C219.636 927.456 216.659 925.076 213.022 925.076Z" fill="white"/>
<path d="M213.022 925.076H95.9694C92.3322 925.076 89.3594 927.456 89.3594 930.363V1041.11C89.3594 1044.02 92.3322 1046.39 95.9694 1046.39H213.022C216.659 1046.39 219.636 1044.02 219.636 1041.11V930.363C219.636 927.456 216.659 925.076 213.022 925.076Z" stroke="#586168" stroke-width="1.33341" stroke-miterlimit="22.9256"/>
<path fill-rule="evenodd" clip-rule="evenodd" d="M105.743 935.693C105.743 934.351 104.383 933.26 102.7 933.26C101.021 933.26 99.6562 934.351 99.6562 935.693C99.6562 937.035 101.021 938.126 102.7 938.126C104.383 938.126 105.743 937.035 105.743 935.693Z" fill="white"/>
<path d="M105.743 935.693C105.743 934.351 104.383 933.26 102.7 933.26C101.021 933.26 99.6562 934.351 99.6562 935.693C99.6562 937.035 101.021 938.126 102.7 938.126C104.383 938.126 105.743 937.035 105.743 935.693Z" stroke="#586168" stroke-width="1.33341" stroke-miterlimit="22.9256"/>
<path d="M78 1052.03H135.275" stroke="#586168" stroke-width="1.33341" stroke-miterlimit="22.9256"/>
<path d="M235 1282.39V1197.06C235 1188.86 241.65 1182.22 249.842 1182.22H284.158C292.363 1182.22 299 1188.86 299 1197.06V1211.9V1227.52V1282.39H235Z" fill="white"/>
<path d="M235 1282.39V1197.06C235 1188.86 241.65 1182.22 249.842 1182.22H284.158C292.363 1182.22 299 1188.86 299 1197.06V1211.9V1227.52V1282.39H235Z" stroke="#586168" stroke-width="1.33341" stroke-miterlimit="10"/>
<path d="M299 1257.42C299 1260.15 296.796 1262.36 294.048 1262.36H288.339H282.629H251.383H245.661H239.947C237.217 1262.36 235 1260.15 235 1257.42H299Z" fill="white"/>
<path d="M299 1257.42C299 1260.15 296.796 1262.36 294.048 1262.36H288.339H282.629H251.383H245.661H239.947C237.217 1262.36 235 1260.15 235 1257.42H299Z" stroke="#586168" stroke-width="1.33341" stroke-miterlimit="10"/>
<path fill-rule="evenodd" clip-rule="evenodd" d="M266.998 1268.94C265.075 1268.94 263.512 1270.5 263.512 1272.43C263.512 1274.35 265.075 1275.91 266.998 1275.91C268.92 1275.91 270.482 1274.35 270.482 1272.43C270.482 1270.5 268.92 1268.94 266.998 1268.94Z" fill="white"/>
<path d="M266.998 1268.94C265.075 1268.94 263.512 1270.5 263.512 1272.43C263.512 1274.35 265.075 1275.91 266.998 1275.91C268.92 1275.91 270.482 1274.35 270.482 1272.43C270.482 1270.5 268.92 1268.94 266.998 1268.94Z" stroke="#586168" stroke-width="1.33341" stroke-miterlimit="22.9256"/>
<path fill-rule="evenodd" clip-rule="evenodd" d="M168.47 1183.94V1084H107.004V1183.94H168.47Z" fill="white"/>
<path d="M168.47 1183.94V1084H107.004V1183.94H168.47Z" stroke="#586168" stroke-width="1.33341" stroke-miterlimit="22.9256"/>
<path fill-rule="evenodd" clip-rule="evenodd" d="M161.106 1172.09V1095.85H118.488V1172.09H161.106Z" fill="white"/>
<path d="M161.106 1172.09V1095.85H118.488V1172.09H161.106Z" stroke="#586168" stroke-width="1.33341" stroke-miterlimit="22.9256"/>
<path fill-rule="evenodd" clip-rule="evenodd" d="M137.294 1133.97C137.294 1132.26 135.914 1130.88 134.208 1130.88C132.505 1130.88 131.121 1132.26 131.121 1133.97C131.121 1135.67 132.505 1137.06 134.208 1137.06C135.914 1137.06 137.294 1135.67 137.294 1133.97Z" fill="white"/>
<path d="M137.294 1133.97C137.294 1132.26 135.914 1130.88 134.208 1130.88C132.505 1130.88 131.121 1132.26 131.121 1133.97C131.121 1135.67 132.505 1137.06 134.208 1137.06C135.914 1137.06 137.294 1135.67 137.294 1133.97Z" stroke="#586168" stroke-width="1.33341" stroke-miterlimit="22.9256"/>
<path fill-rule="evenodd" clip-rule="evenodd" d="M124.949 1137.06V1130.88H111.594V1137.06H124.949Z" fill="white"/>
<path d="M124.949 1137.06V1130.88H111.594V1137.06H124.949Z" stroke="#586168" stroke-width="1.33341" stroke-miterlimit="22.9256"/>
<path d="M176.374 792.61H367.962V887.551H78.0234V546H176.374V792.61Z" fill="white"/>
<path d="M176.375 793.179H367.393V887.551H78.0234V545H176.375V793.179Z" stroke="#586168" stroke-width="1.33341" stroke-miterlimit="22.9256" stroke-linecap="round" stroke-linejoin="round"/>
<path d="M642.898 608.533V723.479H527.977V608.533H642.898Z" fill="white"/>
<path d="M642.898 608.533V723.479H527.977V608.533H642.898Z" stroke="#586168" stroke-width="1.33341" stroke-miterlimit="22.9256" stroke-linecap="round" stroke-linejoin="round"/>
<path d="M534.308 608.533V723.479H527.977V608.533H534.308Z" fill="white"/>
<path d="M534.308 608.533V723.479H527.977V608.533H534.308Z" stroke="#586168" stroke-width="1.33341" stroke-miterlimit="22.9256" stroke-linecap="round" stroke-linejoin="round"/>
<path d="M578.254 677.509L592.621 654.51" stroke="#586168" stroke-width="1.33341" stroke-miterlimit="22.9256" stroke-linecap="round" stroke-linejoin="round"/>
<path d="M578.902 654.117L591.956 677.886" stroke="#586168" stroke-width="1.33341" stroke-miterlimit="22.9256" stroke-linecap="round" stroke-linejoin="round"/>
<path d="M598.896 666.008H571.977" stroke="#586168" stroke-width="1.33341" stroke-miterlimit="22.9256" stroke-linecap="round" stroke-linejoin="round"/>
<path fill-rule="evenodd" clip-rule="evenodd" d="M280.406 802.277H358.092V877.32H280.406V802.277Z" fill="white"/>
<path fill-rule="evenodd" clip-rule="evenodd" d="M299.873 810.721C306.524 810.721 311.949 816.145 311.949 822.797C311.949 829.444 306.524 834.869 299.873 834.869C293.222 834.869 287.797 829.444 287.797 822.797C287.797 816.145 293.222 810.721 299.873 810.721Z" fill="white"/>
<path fill-rule="evenodd" clip-rule="evenodd" d="M339.002 842.891C346.445 842.891 352.519 848.958 352.519 856.404C352.519 863.847 346.445 869.922 339.002 869.922C331.557 869.922 325.484 863.847 325.484 856.404C325.484 848.958 331.557 842.891 339.002 842.891Z" fill="white"/>
<path fill-rule="evenodd" clip-rule="evenodd" d="M339.001 812.275C344.794 812.275 349.52 817.002 349.52 822.793C349.52 828.587 344.794 833.314 339.001 833.314C333.208 833.314 328.48 828.587 328.48 822.793C328.48 817.002 333.208 812.275 339.001 812.275Z" fill="white"/>
<path fill-rule="evenodd" clip-rule="evenodd" d="M299.772 842.891C307.217 842.891 313.29 848.958 313.29 856.404C313.29 863.847 307.217 869.922 299.772 869.922C292.327 869.922 286.254 863.847 286.254 856.404C286.254 848.958 292.327 842.891 299.772 842.891Z" fill="white"/>
<path d="M357.977 811.647V864.698C357.977 869.454 354.087 873.344 349.328 873.344H277.646C272.891 873.344 269 869.454 269 864.698V811.647C269 806.889 272.891 803 277.646 803H349.328C354.087 803 357.977 806.889 357.977 811.647Z" stroke="#586168" stroke-width="1.33341" stroke-miterlimit="22.9256"/>
<path d="M313.496 854.369C315.193 854.369 316.573 855.748 316.573 857.448C316.573 859.148 315.193 860.525 313.496 860.525C311.793 860.525 310.414 859.148 310.414 857.448C310.414 855.748 311.793 854.369 313.496 854.369Z" stroke="#586168" stroke-width="1.33341" stroke-miterlimit="22.9256"/>
<path fill-rule="evenodd" clip-rule="evenodd" d="M310.414 866.684H316.573V880.001H310.414V866.684Z" fill="white"/>
<path d="M310.414 866.684H316.573V880.001H310.414V866.684Z" stroke="#586168" stroke-width="1.33341" stroke-miterlimit="22.9256"/>
<path d="M227.762 841.778C227.762 844.488 229.96 846.681 232.67 846.681C235.377 846.681 237.574 844.488 237.574 841.778C237.574 839.071 232.67 831.059 232.67 831.059C232.67 831.059 227.762 839.071 227.762 841.778Z" fill="white"/>
<path d="M216.223 853.388C216.223 856.102 218.419 858.295 221.129 858.295C223.837 858.295 226.033 856.102 226.033 853.388C226.033 850.686 221.129 842.674 221.129 842.674C221.129 842.674 216.223 850.686 216.223 853.388Z" fill="white"/>
<path d="M216.223 832.089C216.223 834.799 218.421 836.992 221.131 836.992C223.838 836.992 226.035 834.799 226.035 832.089C226.035 829.383 221.131 821.375 221.131 821.375C221.131 821.375 216.223 829.383 216.223 832.089Z" fill="white"/>
<path fill-rule="evenodd" clip-rule="evenodd" d="M112.308 690.935C112.308 692.754 110.83 694.232 109.009 694.232C107.187 694.232 105.711 692.754 105.711 690.935C105.711 689.111 107.187 687.633 109.009 687.633C110.83 687.633 112.308 689.111 112.308 690.935Z" fill="white"/>
<path d="M163.77 729.641V651.955H88.7266V729.641H163.77Z" stroke="#586168" stroke-width="1.33341" stroke-miterlimit="22.9256" stroke-linecap="round" stroke-linejoin="round"/>
<path d="M155.328 710.176C155.328 703.525 149.904 698.1 143.252 698.1C136.605 698.1 131.18 703.525 131.18 710.176C131.18 716.827 136.605 722.252 143.252 722.252C149.904 722.252 155.328 716.827 155.328 710.176Z" stroke="#586168" stroke-width="1.33341" stroke-miterlimit="22.9256" stroke-linecap="round" stroke-linejoin="round"/>
<path d="M123.156 671.044C123.156 663.601 117.089 657.527 109.643 657.527C102.2 657.527 96.125 663.601 96.125 671.044C96.125 678.489 102.2 684.562 109.643 684.562C117.089 684.562 123.156 678.489 123.156 671.044Z" stroke="#586168" stroke-width="1.33341" stroke-miterlimit="22.9256" stroke-linecap="round" stroke-linejoin="round"/>
<path d="M153.773 671.046C153.773 665.253 149.046 660.527 143.255 660.527C137.461 660.527 132.734 665.253 132.734 671.046C132.734 676.839 137.461 681.567 143.255 681.567C149.046 681.567 153.773 676.839 153.773 671.046Z" stroke="#586168" stroke-width="1.33341" stroke-miterlimit="22.9256" stroke-linecap="round" stroke-linejoin="round"/>
<path d="M123.156 710.276C123.156 702.831 117.089 696.758 109.643 696.758C102.2 696.758 96.125 702.831 96.125 710.276C96.125 717.721 102.2 723.794 109.643 723.794C117.089 723.794 123.156 717.721 123.156 710.276Z" stroke="#586168" stroke-width="1.33341" stroke-miterlimit="22.9256" stroke-linecap="round" stroke-linejoin="round"/>
<path fill-rule="evenodd" clip-rule="evenodd" d="M527 723.5V1128.5H643.603V723.5H527Z" fill="white"/>
<path d="M527 723.5V1128.5H643.603V723.5H527Z" stroke="#586168" stroke-width="1.33341" stroke-miterlimit="22.9256" stroke-linecap="round" stroke-linejoin="round"/>
<path d="M584.766 790.273C584.766 790.273 584.766 793.975 584.766 798.481C584.766 802.987 582.679 807.326 579.66 807.326C576.641 807.326 573.034 807.326 573.034 807.326H554.773C550.556 807.326 547.105 810.772 547.105 814.989V814.994C547.105 819.21 550.556 822.661 554.773 822.661H615.828C620.049 822.661 623.5 819.21 623.5 814.994V814.989C623.5 810.777 620.049 807.326 615.828 807.326H597.071C597.071 807.326 593.468 807.326 590.449 807.326C587.431 807.326 585.344 802.987 585.344 798.481C585.344 793.975 585.344 790.273 585.344 790.273H584.766Z" stroke="#586168" stroke-width="1.33341" stroke-miterlimit="22.9256"/>
<path d="M575.41 780.917C575.41 775.748 579.602 771.566 584.766 771.566C589.934 771.566 594.121 775.748 594.121 780.917C594.121 786.086 589.934 790.272 584.766 790.272" stroke="#586168" stroke-width="1.33341" stroke-miterlimit="22.9256" stroke-linecap="round"/>
<path d="M585.738 881.33C585.738 881.33 585.738 885.031 585.738 889.537C585.738 894.044 583.652 898.383 580.633 898.383C577.614 898.383 574.006 898.383 574.006 898.383H555.746C551.529 898.383 548.078 901.829 548.078 906.045V906.05C548.078 910.267 551.529 913.718 555.746 913.718H616.8C621.022 913.718 624.473 910.267 624.473 906.05V906.045C624.473 901.834 621.022 898.383 616.8 898.383H598.044C598.044 898.383 594.441 898.383 591.422 898.383C588.403 898.383 586.317 894.044 586.317 889.537C586.317 885.031 586.317 881.33 586.317 881.33H585.738Z" stroke="#586168" stroke-width="1.33341" stroke-miterlimit="22.9256"/>
<path d="M576.383 871.976C576.383 866.807 580.575 862.625 585.738 862.625C590.907 862.625 595.094 866.807 595.094 871.976C595.094 877.144 590.907 881.331 585.738 881.331" stroke="#586168" stroke-width="1.33341" stroke-miterlimit="22.9256" stroke-linecap="round"/>
<path d="M585.738 972.533C585.738 972.533 585.738 976.234 585.738 980.741C585.738 985.247 583.652 989.586 580.633 989.586C577.614 989.586 574.006 989.586 574.006 989.586H555.746C551.529 989.586 548.078 993.032 548.078 997.249V997.254C548.078 1001.47 551.529 1004.92 555.746 1004.92H616.8C621.022 1004.92 624.473 1001.47 624.473 997.254V997.249C624.473 993.037 621.022 989.586 616.8 989.586H598.044C598.044 989.586 594.441 989.586 591.422 989.586C588.403 989.586 586.317 985.247 586.317 980.741C586.317 976.234 586.317 972.533 586.317 972.533H585.738Z" stroke="#586168" stroke-width="1.33341" stroke-miterlimit="22.9256"/>
<path d="M576.383 963.177C576.383 958.008 580.575 953.826 585.738 953.826C590.907 953.826 595.094 958.008 595.094 963.177C595.094 968.345 590.907 972.532 585.738 972.532" stroke="#586168" stroke-width="1.33341" stroke-miterlimit="22.9256" stroke-linecap="round"/>
<path d="M585.738 1063.74C585.738 1063.74 585.738 1067.44 585.738 1071.94C585.738 1076.45 583.652 1080.79 580.633 1080.79C577.614 1080.79 574.006 1080.79 574.006 1080.79H555.746C551.529 1080.79 548.078 1084.23 548.078 1088.45V1088.46C548.078 1092.67 551.529 1096.12 555.746 1096.12H616.8C621.022 1096.12 624.473 1092.67 624.473 1088.46V1088.45C624.473 1084.24 621.022 1080.79 616.8 1080.79H598.044C598.044 1080.79 594.441 1080.79 591.422 1080.79C588.403 1080.79 586.317 1076.45 586.317 1071.94C586.317 1067.44 586.317 1063.74 586.317 1063.74H585.738Z" stroke="#586168" stroke-width="1.33341" stroke-miterlimit="22.9256"/>
<path d="M576.383 1054.38C576.383 1049.21 580.575 1045.03 585.738 1045.03C590.907 1045.03 595.094 1049.21 595.094 1054.38C595.094 1059.55 590.907 1063.73 585.738 1063.73" stroke="#586168" stroke-width="1.33341" stroke-miterlimit="22.9256" stroke-linecap="round"/>
<path fill-rule="evenodd" clip-rule="evenodd" d="M513 1244.65V1188.76C513 1184.25 516.685 1180.57 521.187 1180.57H577.08C581.583 1180.57 585.268 1184.25 585.268 1188.76V1244.65C585.268 1249.15 581.583 1252.84 577.08 1252.84H521.187C516.685 1252.84 513 1249.15 513 1244.65Z" fill="white"/>
<path d="M513 1244.65V1188.76C513 1184.25 516.685 1180.57 521.187 1180.57H577.08C581.583 1180.57 585.268 1184.25 585.268 1188.76V1244.65C585.268 1249.15 581.583 1252.84 577.08 1252.84H521.187C516.685 1252.84 513 1249.15 513 1244.65Z" stroke="#586168" stroke-width="1.33341" stroke-miterlimit="22.9256"/>
<path d="M520.859 1218.22C532.152 1220.85 558.383 1212.29 577.317 1218.22" stroke="#586168" stroke-width="1.33341" stroke-miterlimit="22.9256"/>
<path d="M549.897 1245.65C552.527 1234.36 543.968 1208.12 549.897 1189.19" stroke="#586168" stroke-width="1.33341" stroke-miterlimit="22.9256"/>
<path fill-rule="evenodd" clip-rule="evenodd" d="M545.953 1217.42C545.953 1215.69 547.353 1214.28 549.083 1214.28C550.812 1214.28 552.212 1215.69 552.212 1217.42C552.212 1219.14 550.812 1220.54 549.083 1220.54C547.353 1220.54 545.953 1219.14 545.953 1217.42Z" fill="white"/>
<path d="M545.953 1217.42C545.953 1215.69 547.353 1214.28 549.083 1214.28C550.812 1214.28 552.212 1215.69 552.212 1217.42C552.212 1219.14 550.812 1220.54 549.083 1220.54C547.353 1220.54 545.953 1219.14 545.953 1217.42Z" stroke="#586168" stroke-width="1.33341" stroke-miterlimit="22.9256"/>
<path fill-rule="evenodd" clip-rule="evenodd" d="M564.035 1312.94V1140.5H643V1312.94H564.035Z" fill="white"/>
<path d="M564.035 1312.94V1140.5H643V1312.94H564.035Z" stroke="#586168" stroke-width="1.33341" stroke-miterlimit="22.9256"/>
<path fill-rule="evenodd" clip-rule="evenodd" d="M618.974 1183.16C617.541 1180.57 612.167 1180.81 607.651 1183.32C603.132 1185.82 602.221 1188.81 601.104 1191.16C600.419 1192.6 597.476 1192.39 594.021 1194.3C590.562 1196.22 587.154 1199.31 587.782 1200.45C588.411 1201.58 592.84 1200.33 596.298 1198.42C599.754 1196.5 601.007 1193.91 602.59 1194.09C605.174 1194.39 608.32 1195.18 612.836 1192.67C617.355 1190.17 620.404 1185.74 618.974 1183.16Z" fill="white"/>
<path d="M618.974 1183.16C617.541 1180.57 612.167 1180.81 607.651 1183.32C603.132 1185.82 602.221 1188.81 601.104 1191.16C600.419 1192.6 597.476 1192.39 594.021 1194.3C590.562 1196.22 587.154 1199.31 587.782 1200.45C588.411 1201.58 592.84 1200.33 596.298 1198.42C599.754 1196.5 601.007 1193.91 602.59 1194.09C605.174 1194.39 608.32 1195.18 612.836 1192.67C617.355 1190.17 620.404 1185.74 618.974 1183.16Z" stroke="#586168" stroke-width="1.33341" stroke-miterlimit="22.9256"/>
<path fill-rule="evenodd" clip-rule="evenodd" d="M637.797 1293.65V1159.79H643.001V1293.65H637.797Z" fill="white"/>
<path d="M637.797 1293.65V1159.79H643.001V1293.65H637.797Z" stroke="#586168" stroke-width="1.33341" stroke-miterlimit="22.9256"/>
<path fill-rule="evenodd" clip-rule="evenodd" d="M499 531V107H176V531H499Z" fill="white"/>
<path d="M499 526V107H176V526H499Z" stroke="#586168" stroke-width="1.33341" stroke-miterlimit="22.9256"/>
<path fill-rule="evenodd" clip-rule="evenodd" d="M78 159.129V177.078H181.826V163.716C181.826 156.366 175.815 150.355 168.465 150.355H86.7742C81.95 150.355 78 154.305 78 159.129Z" fill="white"/>
<path d="M78 159.129V177.078H181.826V163.716C181.826 156.366 175.815 150.355 168.465 150.355H86.7742C81.95 150.355 78 154.305 78 159.129Z" stroke="#586168" stroke-width="1.33341" stroke-miterlimit="22.9256"/>
<path fill-rule="evenodd" clip-rule="evenodd" d="M104.723 177.082V274.004H207.298V184.344C207.298 180.35 204.03 177.082 200.032 177.082H104.723Z" fill="white"/>
<path d="M104.723 177.082V274.004H207.298V184.344C207.298 180.35 204.03 177.082 200.032 177.082H104.723Z" stroke="#586168" stroke-width="1.33341" stroke-miterlimit="22.9256"/>
<path fill-rule="evenodd" clip-rule="evenodd" d="M104.723 274.002V370.924H207.298V274.002H104.723Z" fill="white"/>
<path d="M104.723 274.002V370.924H207.298V274.002H104.723Z" stroke="#586168" stroke-width="1.33341" stroke-miterlimit="22.9256"/>
<path fill-rule="evenodd" clip-rule="evenodd" d="M104.723 370.926V467.848H200.377C204.182 467.848 207.298 464.735 207.298 460.927V370.926H104.723Z" fill="white"/>
<path d="M104.723 370.926V467.848H200.377C204.182 467.848 207.298 464.735 207.298 460.927V370.926H104.723Z" stroke="#586168" stroke-width="1.33341" stroke-miterlimit="22.9256"/>
<path fill-rule="evenodd" clip-rule="evenodd" d="M78 467.844V485.791C78 490.619 81.95 494.568 86.7782 494.568H168.465C175.815 494.568 181.826 488.558 181.826 481.207V467.844H78Z" fill="white"/>
<path d="M78 467.844V485.791C78 490.619 81.95 494.568 86.7782 494.568H168.465C175.815 494.568 181.826 488.558 181.826 481.207V467.844H78Z" stroke="#586168" stroke-width="1.33341" stroke-miterlimit="22.9256"/>
<path fill-rule="evenodd" clip-rule="evenodd" d="M104.724 177.082H78V467.848H104.724V177.082Z" fill="white"/>
<path d="M104.724 177.082H78V467.848H104.724V177.082Z" stroke="#586168" stroke-width="1.33341" stroke-miterlimit="22.9256"/>
<path fill-rule="evenodd" clip-rule="evenodd" d="M104.723 370.926V467.848H110.176C113.176 467.848 115.63 465.395 115.63 462.395V376.379C115.63 373.379 113.176 370.926 110.176 370.926H104.723Z" fill="white"/>
<path d="M104.723 370.926V467.848H110.176C113.176 467.848 115.63 465.395 115.63 462.395V376.379C115.63 373.379 113.176 370.926 110.176 370.926H104.723Z" stroke="#586168" stroke-width="1.33341" stroke-miterlimit="22.9256"/>
<path fill-rule="evenodd" clip-rule="evenodd" d="M104.723 274.002V370.924H110.176C113.176 370.924 115.63 368.471 115.63 365.471V279.455C115.63 276.455 113.176 274.002 110.176 274.002H104.723Z" fill="white"/>
<path d="M104.723 274.002V370.924H110.176C113.176 370.924 115.63 368.471 115.63 365.471V279.455C115.63 276.455 113.176 274.002 110.176 274.002H104.723Z" stroke="#586168" stroke-width="1.33341" stroke-miterlimit="22.9256"/>
<path fill-rule="evenodd" clip-rule="evenodd" d="M104.723 177.082V274.004H110.176C113.176 274.004 115.63 271.551 115.63 268.55V182.535C115.63 179.536 113.176 177.082 110.176 177.082H104.723Z" fill="white"/>
<path d="M104.723 177.082V274.004H110.176C113.176 274.004 115.63 271.551 115.63 268.55V182.535C115.63 179.536 113.176 177.082 110.176 177.082H104.723Z" stroke="#586168" stroke-width="1.33341" stroke-miterlimit="22.9256"/>
<path fill-rule="evenodd" clip-rule="evenodd" d="M400.082 300.062C400.082 265.587 372.131 237.639 337.656 237.639C303.185 237.639 275.234 265.587 275.234 300.062C275.234 334.536 303.185 362.485 337.656 362.485C372.131 362.485 400.082 334.536 400.082 300.062Z" fill="white"/>
<path d="M400.082 300.062C400.082 265.587 372.131 237.639 337.656 237.639C303.185 237.639 275.234 265.587 275.234 300.062C275.234 334.536 303.185 362.485 337.656 362.485C372.131 362.485 400.082 334.536 400.082 300.062Z" stroke="#586168" stroke-width="1.33341" stroke-miterlimit="22.9256"/>
<path fill-rule="evenodd" clip-rule="evenodd" d="M396.45 367.152C396.45 343.239 377.065 323.85 353.153 323.85C329.237 323.85 309.852 343.239 309.852 367.152C309.852 391.066 329.237 410.452 353.153 410.452C377.065 410.452 396.45 391.066 396.45 367.152Z" fill="white"/>
<path d="M396.45 367.152C396.45 343.239 377.065 323.85 353.153 323.85C329.237 323.85 309.852 343.239 309.852 367.152C309.852 391.066 329.237 410.452 353.153 410.452C377.065 410.452 396.45 391.066 396.45 367.152Z" stroke="#586168" stroke-width="1.33341" stroke-miterlimit="22.9256"/>
<path d="M325.959 303.911V280.59H291.496V303.911H325.959Z" stroke="#586168" stroke-width="1.33341" stroke-miterlimit="22.9256"/>
<path fill-rule="evenodd" clip-rule="evenodd" d="M324.817 303.645L331.41 281.276L298.351 271.529L291.758 293.898L324.817 303.645Z" fill="white"/>
<path d="M324.817 303.645L331.41 281.276L298.351 271.529L291.758 293.898L324.817 303.645Z" stroke="#586168" stroke-width="1.33341" stroke-miterlimit="22.9256"/>
<path d="M332.49 202.436C338.722 197.961 347.917 198.005 347.6 190.141C347.287 182.277 345.96 181.002 338.317 182.141C330.673 183.28 327.57 170.259 341.529 165.579C355.492 160.895 384.754 157.98 405.057 165.162C425.361 172.344 428.388 179.406 428.388 179.406C428.388 179.406 442.733 183.556 446.61 188.076C450.488 192.595 451.751 194.027 453.925 197.299C456.098 200.575 456.223 201.177 452.193 201.574C448.166 201.967 445.251 201.891 445.251 201.891C445.251 201.891 446.394 208.162 442.52 213.636C438.646 219.106 434.295 220.289 434.295 220.289C434.295 220.289 435.35 225.414 435.911 227.668C436.473 229.921 434.063 230.419 429.058 229.127C424.053 227.836 413.784 223.862 411.253 219.427C408.723 214.996 410.086 214.811 406.621 213.588C403.153 212.369 400.017 211.928 400.017 211.928C400.017 211.928 385.404 212.545 374.849 208.359C364.294 204.176 363.376 204.172 352.152 208.006C340.927 211.84 331.596 215.333 330.429 209.799C329.266 204.261 332.49 202.436 332.49 202.436Z" stroke="#586168" stroke-width="1.33341" stroke-miterlimit="22.9256" stroke-linecap="round" stroke-linejoin="round"/>
<path d="M400.012 211.931C400.012 211.931 405.963 212.028 406.372 208.062C406.781 204.096 402.149 200.523 398.969 197.683C395.793 194.84 394.63 196.697 391.907 198.068C388.394 199.841 392.813 204.152 393.17 207.456" stroke="#586168" stroke-width="1.33341" stroke-miterlimit="22.9256" stroke-linecap="round" stroke-linejoin="round"/>
<path d="M414.671 175.317C414.671 175.317 415.429 178.666 413.235 180.446C411.042 182.227 404.361 185.415 400.158 184.079C395.96 182.744 397.464 179.031 398.635 176.143C399.805 173.252 403.042 173.553 404.742 172.767C406.442 171.981 406.322 170.461 406.322 170.461" stroke="#586168" stroke-width="1.33341" stroke-miterlimit="22.9256" stroke-linecap="round" stroke-linejoin="round"/>
<path d="M355.574 162.359C355.574 162.359 364.441 145.854 383.946 147.033C415.927 148.97 414.796 164.517 405.216 159.889C399.325 157.042 394.729 155.149 385.831 154.704C374.987 154.159 364.437 161.313 364.437 161.313" stroke="#586168" stroke-width="1.33341" stroke-miterlimit="22.9256" stroke-linecap="round" stroke-linejoin="round"/>
<path d="M436.895 203.757C435.627 200.296 437.187 198.259 439.742 198.556" stroke="#586168" stroke-width="1.33341" stroke-miterlimit="22.9256" stroke-linecap="round" stroke-linejoin="round"/>
<path d="M426.609 218.716C425.342 215.255 426.906 213.218 429.452 213.515" stroke="#586168" stroke-width="1.33341" stroke-miterlimit="22.9256" stroke-linecap="round" stroke-linejoin="round"/>
<path d="M427.575 207.113C427.575 207.113 428.221 204.611 427.342 203.705C426.468 202.794 423.376 204.631 423.188 202.024C423.003 199.414 424.976 199.201 426.007 199.847C427.034 200.493 425.369 203.227 427.527 203.135C429.684 203.043 430.51 202.133 430.51 202.133" stroke="#586168" stroke-width="1.33341" stroke-miterlimit="22.9256" stroke-linecap="round" stroke-linejoin="round"/>
<path d="M431.227 197.274C431.227 197.274 433.753 195.903 435.686 194.106C437.619 192.31 439.195 189.771 439.195 189.771" stroke="#586168" stroke-width="1.33341" stroke-miterlimit="22.9256" stroke-linecap="round" stroke-linejoin="round"/>
<path d="M428.914 194.606L432.255 185.271" stroke="#586168" stroke-width="1.33341" stroke-miterlimit="22.9256" stroke-linecap="round" stroke-linejoin="round"/>
<path d="M422.904 208.566C422.904 208.566 422.571 212.392 421.22 214.93C419.868 217.469 418.469 218.19 418.469 218.19" stroke="#586168" stroke-width="1.33341" stroke-miterlimit="22.9256" stroke-linecap="round" stroke-linejoin="round"/>
<path d="M420.264 206.115C420.264 206.115 418.765 208.682 417.501 209.949C416.238 211.212 414.734 212.443 414.734 212.443" stroke="#586168" stroke-width="1.33341" stroke-miterlimit="22.9256" stroke-linecap="round" stroke-linejoin="round"/>
<path fill-rule="evenodd" clip-rule="evenodd" d="M129.992 424.915C129.992 424.915 130.141 433.087 134.492 437.025C138.843 440.965 151.936 448.252 160.638 446.098C169.336 443.944 169.713 441.56 176.358 437.843C183.006 434.127 181.996 432.395 184.667 431.778C187.341 431.16 190.918 429.574 194.668 426.66C198.413 423.746 193.734 423.751 196.661 421.409C199.584 419.066 199.845 419.714 199.584 417.02C199.328 414.327 198.983 411.283 198.983 411.283C198.983 411.283 188.22 408.285 185.132 405.901C182.04 403.515 182.373 398.125 182.208 393.391C182.04 388.659 183.528 386.388 179.313 384.643C175.098 382.899 164.087 381.126 159.908 382.846C155.73 384.566 152.754 385.24 152.754 385.24C152.754 385.24 140.166 380.372 133.181 385.438C126.195 390.504 125.068 399.806 126.195 407.06C127.322 414.316 129.992 424.915 129.992 424.915Z" fill="white"/>
<path d="M129.992 424.915C129.992 424.915 130.141 433.087 134.492 437.025C138.843 440.965 151.936 448.252 160.638 446.098C169.336 443.944 169.713 441.56 176.358 437.843C183.006 434.127 181.996 432.395 184.667 431.778C187.341 431.16 190.918 429.574 194.668 426.66C198.413 423.746 193.734 423.751 196.661 421.409C199.584 419.066 199.845 419.714 199.584 417.02C199.328 414.327 198.983 411.283 198.983 411.283C198.983 411.283 188.22 408.285 185.132 405.901C182.04 403.515 182.373 398.125 182.208 393.391C182.04 388.659 183.528 386.388 179.313 384.643C175.098 382.899 164.087 381.126 159.908 382.846C155.73 384.566 152.754 385.24 152.754 385.24C152.754 385.24 140.166 380.372 133.181 385.438C126.195 390.504 125.068 399.806 126.195 407.06C127.322 414.316 129.992 424.915 129.992 424.915Z" stroke="#586168" stroke-width="1.33341" stroke-miterlimit="22.9256" stroke-linecap="round" stroke-linejoin="round"/>
<path d="M182.894 430.046C182.035 427.46 178.735 425.665 177.36 426.673C175.984 427.678 167.823 434.143 162.081 434.113C156.342 434.082 149.758 428.703 149.758 428.703C149.758 428.703 150.275 430.049 155.135 429.596C159.996 429.145 162.225 426.388 162.225 426.388C162.225 426.388 162.955 418.234 162.318 412.078C161.68 405.925 160.982 399.188 160.982 399.188" stroke="#586168" stroke-width="1.33341" stroke-miterlimit="22.9256" stroke-linecap="round" stroke-linejoin="round"/>
<path d="M148.175 396.167C148.175 396.167 147.654 389.769 148.704 391.876C149.759 393.98 161.982 399.624 166.85 402.624C171.718 405.622 176.847 408.573 177.561 406.193C178.275 403.814 180.164 398.664 178.861 395.726C177.561 392.789 162.379 386.929 153.641 384.943C144.899 382.955 139.036 381.367 133.177 385.439C127.318 389.512 126.191 395.092 126.191 395.092" stroke="#586168" stroke-width="1.33341" stroke-miterlimit="22.9256" stroke-linecap="round" stroke-linejoin="round"/>
<path fill-rule="evenodd" clip-rule="evenodd" d="M194.667 426.659C194.667 426.659 197.574 427.317 205.117 424.328C212.664 421.339 219.794 414.741 225.461 411.563C231.123 408.383 238.085 409.604 238.085 409.604C238.085 409.604 246.735 414.062 251.045 412.633C255.356 411.208 262.214 405.622 260.722 403.12C259.23 400.617 261.785 403.844 251.884 402.536C241.983 401.229 226.953 399.594 220.593 398.749C214.232 397.905 212.624 400.723 205.214 398.109C197.803 395.494 182.039 388.658 182.039 388.658V405.008L194.667 426.659Z" fill="white"/>
<path d="M194.667 426.659C194.667 426.659 197.574 427.317 205.117 424.328C212.664 421.339 219.794 414.741 225.461 411.563C231.123 408.383 238.085 409.604 238.085 409.604C238.085 409.604 246.735 414.062 251.045 412.633C255.356 411.208 262.214 405.622 260.722 403.12C259.23 400.617 261.785 403.844 251.884 402.536C241.983 401.229 226.953 399.594 220.593 398.749C214.232 397.905 212.624 400.723 205.214 398.109C197.803 395.494 182.039 388.658 182.039 388.658V405.008L194.667 426.659Z" stroke="#586168" stroke-width="1.33341" stroke-miterlimit="22.9256" stroke-linecap="round" stroke-linejoin="round"/>
<path fill-rule="evenodd" clip-rule="evenodd" d="M119.477 400.333C115.599 405.616 114.091 409.346 117.628 415.96C121.165 422.572 125.299 422.483 132.369 425.86C139.439 429.239 143.85 428.894 146.393 424.074C148.939 419.254 146.77 416.269 149.765 414.213C152.757 412.158 158.014 409.523 154.341 410.292C150.663 411.061 151.052 411.466 146.958 413.801C142.864 416.139 141.131 414.867 141.528 410.961C141.925 407.056 141.111 402.52 137.454 399.241C133.797 395.964 131.431 392.695 126.707 395.201C121.983 397.709 119.477 400.333 119.477 400.333Z" fill="white"/>
<path d="M119.477 400.333C115.599 405.616 114.091 409.346 117.628 415.96C121.165 422.572 125.299 422.483 132.369 425.86C139.439 429.239 143.85 428.894 146.393 424.074C148.939 419.254 146.77 416.269 149.765 414.213C152.757 412.158 158.014 409.523 154.341 410.292C150.663 411.061 151.052 411.466 146.958 413.801C142.864 416.139 141.131 414.867 141.528 410.961C141.925 407.056 141.111 402.52 137.454 399.241C133.797 395.964 131.431 392.695 126.707 395.201C121.983 397.709 119.477 400.333 119.477 400.333Z" stroke="#586168" stroke-width="1.33341" stroke-miterlimit="22.9256" stroke-linecap="round" stroke-linejoin="round"/>
<path d="M147.636 413.409C147.636 413.409 147.335 406.164 144.576 402.674C141.821 399.182 139.371 400.072 139.371 400.072" stroke="#586168" stroke-width="1.33341" stroke-miterlimit="22.9256" stroke-linecap="round" stroke-linejoin="round"/>
<path fill-rule="evenodd" clip-rule="evenodd" d="M179.072 400.615L177.363 406.785C177.363 406.785 179.509 407.912 181.257 410.517C183.002 413.12 184.553 418.559 186.073 418.811C187.593 419.063 189.301 419.883 188.01 416.646C186.719 413.407 188.56 414.988 191.687 417.52C194.815 420.053 197.695 421.731 195.958 417.569C194.218 413.407 193.071 412.752 189.995 410.294C186.923 407.835 179.072 400.615 179.072 400.615Z" fill="white"/>
<path d="M179.072 400.615L177.363 406.785C177.363 406.785 179.509 407.912 181.257 410.517C183.002 413.12 184.553 418.559 186.073 418.811C187.593 419.063 189.301 419.883 188.01 416.646C186.719 413.407 188.56 414.988 191.687 417.52C194.815 420.053 197.695 421.731 195.958 417.569C194.218 413.407 193.071 412.752 189.995 410.294C186.923 407.835 179.072 400.615 179.072 400.615Z" stroke="#586168" stroke-width="1.33341" stroke-miterlimit="22.9256" stroke-linecap="round" stroke-linejoin="round"/>
<path d="M179.605 426.658C179.605 426.658 180.873 425.267 182.332 423.66C183.792 422.053 186.711 419.07 186.711 419.07" stroke="#586168" stroke-width="1.33341" stroke-miterlimit="22.9256" stroke-linecap="round" stroke-linejoin="round"/>
<path d="M191.625 411.249C191.625 411.249 203.114 411.973 213.143 411.166C223.177 410.36 229.493 409.996 229.493 409.996" stroke="#586168" stroke-width="1.33341" stroke-miterlimit="22.9256" stroke-linecap="round" stroke-linejoin="round"/>
<path d="M245.195 411.465C245.195 411.465 251.335 410.492 252.357 408.055C253.38 405.619 250.461 402.693 250.461 402.693" stroke="#586168" stroke-width="1.33341" stroke-miterlimit="22.9256" stroke-linecap="round" stroke-linejoin="round"/>
<path fill-rule="evenodd" clip-rule="evenodd" d="M319.567 527.145H365.715V578.859H319.579C316.51 578.859 314 576.35 314 573.28V532.711C314 529.648 316.506 527.145 319.567 527.145Z" fill="white"/>
<path fill-rule="evenodd" clip-rule="evenodd" d="M507.436 527.145H461.285V578.859H507.42C510.49 578.859 513.003 576.35 513.003 573.28V532.711C513.003 529.648 510.496 527.145 507.436 527.145Z" fill="white"/>
<path fill-rule="evenodd" clip-rule="evenodd" d="M387.645 459.064V505.215H439.359V459.079C439.359 456.01 436.846 453.5 433.78 453.5H393.211C390.148 453.5 387.645 456.003 387.645 459.064Z" fill="white"/>
<path d="M1053 393.189H1097.7V190H1053V393.189Z" stroke="#586168" stroke-width="1.33341" stroke-miterlimit="22.9256" stroke-linecap="round" stroke-linejoin="round"/>
<path d="M1084.09 263.617H1086.78C1088.26 263.617 1089.47 264.828 1089.47 266.306V316.879C1089.47 318.356 1088.26 319.567 1086.78 319.567H1084.09V263.617Z" stroke="#586168" stroke-width="1.33341" stroke-miterlimit="22.9256"/>
<path d="M1084.76 325.676C1084.76 340.221 1084.49 353.7 1084.02 364.778L1081.2 364.789V218.398L1084.02 218.412C1084.49 229.474 1084.76 242.972 1084.76 257.514V325.676Z" fill="white"/>
<path d="M1084.76 325.676C1084.76 340.221 1084.49 353.7 1084.02 364.778L1081.2 364.789V218.398L1084.02 218.412C1084.49 229.474 1084.76 242.972 1084.76 257.514V325.676Z" stroke="#586168" stroke-width="1.33341" stroke-miterlimit="10"/>
<path fill-rule="evenodd" clip-rule="evenodd" d="M224.735 398.598C224.735 398.598 222.73 396.615 224.607 393.807C226.488 390.996 226.479 392.46 229.992 392.165C233.501 391.872 235.695 391.559 241.309 392.936C246.915 394.314 248.563 395.469 246.173 396.609C243.783 397.751 239.42 398.763 239.023 399.689C238.622 400.615 237.728 400.798 237.728 400.798L224.735 398.598Z" fill="white"/>
<path d="M224.735 398.598C224.735 398.598 222.73 396.615 224.607 393.807C226.488 390.996 226.479 392.46 229.992 392.165C233.501 391.872 235.695 391.559 241.309 392.936C246.915 394.314 248.563 395.469 246.173 396.609C243.783 397.751 239.42 398.763 239.023 399.689C238.622 400.615 237.728 400.798 237.728 400.798L224.735 398.598Z" stroke="#586168" stroke-width="1.33341" stroke-miterlimit="22.9256" stroke-linecap="round" stroke-linejoin="round"/>
<path d="M224.039 397.475C224.039 397.475 227.62 394.977 231.57 394.977C235.52 394.977 241.844 398.232 241.844 398.232" stroke="#586168" stroke-width="1.33341" stroke-miterlimit="22.9256" stroke-linecap="round" stroke-linejoin="round"/>
<path fill-rule="evenodd" clip-rule="evenodd" d="M1006.19 566.281V860.982H760.199V566.281C760.199 559.253 765.952 553.5 772.983 553.5H993.406C1000.44 553.5 1006.19 559.253 1006.19 566.281Z" fill="white"/>
<path d="M1006.19 566.281V860.982H760.199V566.281C760.199 559.253 765.952 553.5 772.983 553.5H993.406C1000.44 553.5 1006.19 559.253 1006.19 566.281Z" stroke="#586168" stroke-width="1.33341" stroke-miterlimit="22.9256"/>
<path fill-rule="evenodd" clip-rule="evenodd" d="M1006.19 860.981V795.801H1096.4V860.981H1006.19Z" fill="white"/>
<path d="M1006.19 860.981V795.801H1096.4V860.981H1006.19Z" stroke="#586168" stroke-width="1.33341" stroke-miterlimit="22.9256"/>
<path fill-rule="evenodd" clip-rule="evenodd" d="M670 860.981V795.801H760.202V860.981H670Z" fill="white"/>
<path d="M670 860.981V795.801H760.202V860.981H670Z" stroke="#586168" stroke-width="1.33341" stroke-miterlimit="22.9256"/>
<path fill-rule="evenodd" clip-rule="evenodd" d="M888.891 839.262V806.364C888.891 800.56 893.646 795.801 899.457 795.801H985.061C990.872 795.801 995.628 800.553 995.628 806.364V839.262C995.628 845.072 990.865 849.825 985.061 849.825H899.457C893.65 849.825 888.891 845.062 888.891 839.262Z" fill="white"/>
<path d="M888.891 839.262V806.364C888.891 800.56 893.646 795.801 899.457 795.801H985.061C990.872 795.801 995.628 800.553 995.628 806.364V839.262C995.628 845.072 990.865 849.825 985.061 849.825H899.457C893.65 849.825 888.891 845.062 888.891 839.262Z" stroke="#586168" stroke-width="1.33341" stroke-miterlimit="22.9256"/>
<path fill-rule="evenodd" clip-rule="evenodd" d="M771.16 839.262V806.364C771.16 800.56 775.912 795.801 781.723 795.801H867.327C873.138 795.801 877.894 800.553 877.894 806.364V839.262C877.894 845.072 873.134 849.825 867.327 849.825H781.723C775.919 849.825 771.16 845.062 771.16 839.262Z" fill="white"/>
<path d="M771.16 839.262V806.364C771.16 800.56 775.912 795.801 781.723 795.801H867.327C873.138 795.801 877.894 800.553 877.894 806.364V839.262C877.894 845.072 873.134 849.825 867.327 849.825H781.723C775.919 849.825 771.16 845.062 771.16 839.262Z" stroke="#586168" stroke-width="1.33341" stroke-miterlimit="22.9256"/>
<path fill-rule="evenodd" clip-rule="evenodd" d="M739.252 828.39C739.252 841.728 728.441 852.543 715.103 852.543C701.76 852.543 690.949 841.728 690.949 828.39C690.949 815.051 701.76 804.236 715.103 804.236C728.441 804.236 739.252 815.051 739.252 828.39Z" fill="white"/>
<path d="M739.252 828.39C739.252 841.728 728.441 852.543 715.103 852.543C701.76 852.543 690.949 841.728 690.949 828.39C690.949 815.051 701.76 804.236 715.103 804.236C728.441 804.236 739.252 815.051 739.252 828.39Z" stroke="#586168" stroke-width="1.33341" stroke-miterlimit="22.9256"/>
<path fill-rule="evenodd" clip-rule="evenodd" d="M724.623 828.388C724.623 833.648 720.361 837.914 715.104 837.914C709.845 837.914 705.582 833.648 705.582 828.388C705.582 823.131 709.845 818.865 715.104 818.865C720.361 818.865 724.623 823.131 724.623 828.388Z" fill="white"/>
<path d="M724.623 828.388C724.623 833.648 720.361 837.914 715.104 837.914C709.845 837.914 705.582 833.648 705.582 828.388C705.582 823.131 709.845 818.865 715.104 818.865C720.361 818.865 724.623 823.131 724.623 828.388Z" stroke="#586168" stroke-width="1.33341" stroke-miterlimit="22.9256"/>
<path d="M1044.19 832.972L1038.54 813.139L1027.54 816.274L1033.2 836.108L1044.19 832.972Z" stroke="#586168" stroke-width="1.33341" stroke-miterlimit="22.9256"/>
<path fill-rule="evenodd" clip-rule="evenodd" d="M1050.24 627.688L1064.81 621.55C1068.87 619.843 1070.78 615.127 1069.08 611.074C1067.37 607.023 1062.65 605.105 1058.6 606.811L1044.03 612.953C1039.98 614.656 1038.06 619.372 1039.77 623.426C1041.47 627.479 1046.19 629.398 1050.24 627.688Z" fill="white"/>
<path d="M1050.24 627.688L1064.81 621.55C1068.87 619.843 1070.78 615.127 1069.08 611.074C1067.37 607.023 1062.65 605.105 1058.6 606.811L1044.03 612.953C1039.98 614.656 1038.06 619.372 1039.77 623.426C1041.47 627.479 1046.19 629.398 1050.24 627.688Z" stroke="#586168" stroke-width="1.33341" stroke-miterlimit="22.9256"/>
<path fill-rule="evenodd" clip-rule="evenodd" d="M1051.74 628.301L1055.02 626.915L1047.92 610.066L1044.64 611.449C1040.01 613.4 1037.81 618.793 1039.76 623.427C1041.72 628.06 1047.11 630.252 1051.74 628.301Z" fill="white"/>
<path d="M1051.74 628.301L1055.02 626.915L1047.92 610.066L1044.64 611.449C1040.01 613.4 1037.81 618.793 1039.76 623.427C1041.72 628.06 1047.11 630.252 1051.74 628.301Z" stroke="#586168" stroke-width="1.33341" stroke-miterlimit="22.9256" stroke-linecap="round" stroke-linejoin="round"/>
<path fill-rule="evenodd" clip-rule="evenodd" d="M1062.59 651.093L1075.83 642.456C1079.52 640.055 1080.57 635.076 1078.16 631.393C1075.76 627.706 1070.78 626.659 1067.1 629.06L1053.85 637.697C1050.17 640.094 1049.11 645.077 1051.52 648.76C1053.92 652.446 1058.9 653.494 1062.59 651.093Z" fill="white"/>
<path d="M1062.59 651.093L1075.83 642.456C1079.52 640.055 1080.57 635.076 1078.16 631.393C1075.76 627.706 1070.78 626.659 1067.1 629.06L1053.85 637.697C1050.17 640.094 1049.11 645.077 1051.52 648.76C1053.92 652.446 1058.9 653.494 1062.59 651.093Z" stroke="#586168" stroke-width="1.33341" stroke-miterlimit="22.9256"/>
<path fill-rule="evenodd" clip-rule="evenodd" d="M1064.17 651.427L1067.15 649.479L1057.17 634.164L1054.18 636.108C1049.97 638.852 1048.77 644.551 1051.52 648.759C1054.26 652.971 1059.96 654.174 1064.17 651.427Z" fill="white"/>
<path d="M1064.17 651.427L1067.15 649.479L1057.17 634.164L1054.18 636.108C1049.97 638.852 1048.77 644.551 1051.52 648.759C1054.26 652.971 1059.96 654.174 1064.17 651.427Z" stroke="#586168" stroke-width="1.33341" stroke-miterlimit="22.9256" stroke-linecap="round" stroke-linejoin="round"/>
<path d="M930.402 611.44C930.402 611.44 934.899 607.994 936.947 605.69C938.996 603.383 942.07 597.683 945.591 595.761C949.116 593.842 952.381 594.098 951.294 597.939C950.203 601.784 947.964 604.985 946.873 606.713C945.786 608.444 942.715 610.658 942.715 610.658" stroke="#586168" stroke-width="1.33341" stroke-miterlimit="22.9256" stroke-linecap="round" stroke-linejoin="round"/>
<path d="M908.972 619.548C908.972 619.548 900.886 609.637 898.453 606.908C896.019 604.176 894.676 604.176 894.676 604.176C894.676 604.176 888.653 609.259 886.605 611.862C884.556 614.461 886.414 618.821 888.462 622.022C890.511 625.222 895.497 629.359 895.497 629.359" stroke="#586168" stroke-width="1.33341" stroke-miterlimit="22.9256" stroke-linecap="round" stroke-linejoin="round"/>
<path d="M886.054 612.807C886.054 612.807 882.058 611.439 879.689 611.439C877.317 611.439 874.948 607.353 876.294 604.408C877.641 601.463 878.728 600.52 878.793 597.553C878.854 594.59 878.015 589.356 879.498 587.242C880.978 585.129 880.139 581.673 881.993 582.569C883.851 583.466 887.311 594.158 887.181 596.912C887.055 599.67 887.757 603.108 889.039 604.174C890.32 605.239 891.919 606.582 891.919 606.582" stroke="#586168" stroke-width="1.33341" stroke-miterlimit="22.9256" stroke-linecap="round" stroke-linejoin="round"/>
<path d="M911.842 784.113C916.583 784.369 917.606 784.113 918.117 787.447C918.632 790.777 921.191 789.366 918.117 792.44C915.046 795.515 909.671 796.156 907.871 798.204C906.071 800.253 908.126 799.741 908.386 802.686C908.641 805.631 909.779 803.968 906.071 807.428C902.363 810.884 904.141 809.988 906.071 813.829C908 817.674 906.071 818.952 906.071 820.234C906.071 821.515 906.593 824.975 909.664 826.894C912.738 828.816 915.301 828.687 914.405 831.506C913.509 834.325 918.502 834.325 922.473 832.917C926.444 831.506 927.135 830.411 927.733 833.842C928.327 837.269 930.545 836.431 935.538 833.842C940.531 831.25 940.02 832.146 942.072 833.428C944.121 834.71 949.885 836.503 950.525 834.454C951.163 832.402 948.732 832.017 950.525 828.046C952.318 824.079 954.846 819.852 950.637 819.211C946.425 818.57 929.259 819.722 925.994 817.033C922.732 814.344 922.408 811.59 923.499 808.771C924.586 805.955 923.37 804.735 922.088 806.017C920.81 807.298 917.926 811.59 915.942 809.732C913.955 807.874 913.188 803.518 916.133 801.47C919.078 799.421 920.745 799.036 920.745 799.036C920.745 799.036 919.654 796.235 918.822 795.321C917.991 794.413 916.608 793.665 916.608 793.665" stroke="#586168" stroke-width="1.33341" stroke-miterlimit="22.9256" stroke-linecap="round" stroke-linejoin="round"/>
<path d="M961.148 749.041C961.148 749.041 963.071 749.206 964.612 752.155C966.149 755.103 967.236 754.823 967.107 752.709C966.981 750.6 971.297 756.85 973.126 755.996C974.959 755.143 973.382 747.539 971.268 745.815C969.159 744.09 962.113 739.986 962.113 739.986" stroke="#586168" stroke-width="1.33341" stroke-miterlimit="22.9256" stroke-linecap="round" stroke-linejoin="round"/>
<path fill-rule="evenodd" clip-rule="evenodd" d="M939.059 744.857C939.059 744.857 939.441 749.98 940.341 753.951C941.234 757.918 942.771 765.093 942.771 765.093C942.771 765.093 950.457 768.297 957.117 771.116C963.778 773.931 978.254 784.307 974.279 792.184C970.312 800.061 948.11 808.874 948.11 808.874C948.11 808.874 946.198 804.306 947.181 800.371L946.331 797.487C946.331 797.487 951.933 794.441 954.943 791.68C957.953 788.919 959.871 787.511 954.752 786.291C949.625 785.078 940.2 782.579 937.011 782.064C933.821 781.553 934.89 782.194 932.424 782.899C929.961 783.601 927.884 772.336 927.884 772.336C927.884 772.336 923.748 769.557 921.883 773.085C915.899 784.426 905.326 782.284 903.191 780.401C871.005 752.017 915.017 727.284 939.059 744.857Z" fill="white"/>
<path d="M939.059 744.857C939.059 744.857 939.441 749.98 940.341 753.951C941.234 757.918 942.771 765.093 942.771 765.093C942.771 765.093 950.457 768.297 957.117 771.116C963.778 773.931 978.254 784.307 974.279 792.184C970.312 800.061 948.11 808.874 948.11 808.874C948.11 808.874 946.198 804.306 947.181 800.371L946.331 797.487C946.331 797.487 951.933 794.441 954.943 791.68C957.953 788.919 959.871 787.511 954.752 786.291C949.625 785.078 940.2 782.579 937.011 782.064C933.821 781.553 934.89 782.194 932.424 782.899C929.961 783.601 927.884 772.336 927.884 772.336C927.884 772.336 923.748 769.557 921.883 773.085C915.899 784.426 905.326 782.284 903.191 780.401C871.005 752.017 915.017 727.284 939.059 744.857Z" stroke="#586168" stroke-width="1.33341" stroke-miterlimit="22.9256" stroke-linecap="round" stroke-linejoin="round"/>
<path fill-rule="evenodd" clip-rule="evenodd" d="M786.944 727.519C786.944 727.519 830.891 736.977 842.163 743.893C853.435 750.808 875.209 756.957 887.503 754.65C899.801 752.346 891.348 747.849 904.669 747.849C917.989 747.849 913.377 748.998 933.614 741.448C953.85 733.902 947.701 727.753 967.174 727.753C986.64 727.753 994.067 720.582 1002.27 713.151C1010.47 705.724 1014.05 710.098 1020.71 700.867C1027.37 691.633 1031.98 689.584 1020.71 685.228C1009.44 680.876 1000.99 677.02 1008.16 663.447C1015.33 649.871 1018.41 633.861 1009.18 617.855C999.961 601.852 1011.23 596.092 988.689 601.852C966.148 607.609 953.595 611.454 943.093 610.683C932.588 609.917 923.112 612.732 914.4 616.832C905.691 620.929 900.568 624.26 894.163 630.664C887.759 637.069 885.966 643.218 865.985 635.532C846.004 627.845 756.148 574.995 752.818 582.422C749.488 589.853 747.814 657.154 751.911 668.426C756.008 679.698 752.573 726.767 749.499 733.679C746.424 740.595 786.944 727.519 786.944 727.519Z" fill="white"/>
<path d="M786.944 727.519C786.944 727.519 830.891 736.977 842.163 743.893C853.435 750.808 875.209 756.957 887.503 754.65C899.801 752.346 891.348 747.849 904.669 747.849C917.989 747.849 913.377 748.998 933.614 741.448C953.85 733.902 947.701 727.753 967.174 727.753C986.64 727.753 994.067 720.582 1002.27 713.151C1010.47 705.724 1014.05 710.098 1020.71 700.867C1027.37 691.633 1031.98 689.584 1020.71 685.228C1009.44 680.876 1000.99 677.02 1008.16 663.447C1015.33 649.871 1018.41 633.861 1009.18 617.855C999.961 601.852 1011.23 596.092 988.689 601.852C966.148 607.609 953.595 611.454 943.093 610.683C932.588 609.917 923.112 612.732 914.4 616.832C905.691 620.929 900.568 624.26 894.163 630.664C887.759 637.069 885.966 643.218 865.985 635.532C846.004 627.845 756.148 574.995 752.818 582.422C749.488 589.853 747.814 657.154 751.911 668.426C756.008 679.698 752.573 726.767 749.499 733.679C746.424 740.595 786.944 727.519 786.944 727.519Z" stroke="#586168" stroke-width="1.33341" stroke-miterlimit="22.9256" stroke-linecap="round" stroke-linejoin="round"/>
<path fill-rule="evenodd" clip-rule="evenodd" d="M916.6 784.643C916.6 784.643 919.34 774.253 922.731 772.46C926.122 770.668 931.501 772.461 930.608 778.548C929.708 784.643 928.326 786.678 928.326 786.678C928.326 786.678 933.614 784.37 935.987 785.525C938.356 786.677 943.093 789.882 944.631 793.082C946.168 796.283 948.602 803.969 948.216 808.005C947.835 812.037 945.527 818.982 945.527 818.982C945.527 818.982 930.842 820.573 927.436 817.754C924.027 814.935 923.217 814.334 923.134 809.924C923.051 805.51 922.878 808.134 919.408 808.934C915.937 809.733 912.399 807.375 914.267 804.423C916.132 801.471 922.735 797.341 919.181 795.8C915.631 794.263 920.481 791.808 919.602 790.476C918.728 789.14 916.6 784.643 916.6 784.643Z" fill="white"/>
<path d="M916.6 784.643C916.6 784.643 919.34 774.253 922.731 772.46C926.122 770.668 931.501 772.461 930.608 778.548C929.708 784.643 928.326 786.678 928.326 786.678C928.326 786.678 933.614 784.37 935.987 785.525C938.356 786.677 943.093 789.882 944.631 793.082C946.168 796.283 948.602 803.969 948.216 808.005C947.835 812.037 945.527 818.982 945.527 818.982C945.527 818.982 930.842 820.573 927.436 817.754C924.027 814.935 923.217 814.334 923.134 809.924C923.051 805.51 922.878 808.134 919.408 808.934C915.937 809.733 912.399 807.375 914.267 804.423C916.132 801.471 922.735 797.341 919.181 795.8C915.631 794.263 920.481 791.808 919.602 790.476C918.728 789.14 916.6 784.643 916.6 784.643Z" stroke="#586168" stroke-width="1.33341" stroke-miterlimit="22.9256" stroke-linecap="round" stroke-linejoin="round"/>
<path d="M929.969 805.63C929.969 805.63 932.914 803.521 934.577 804.417C936.244 805.314 936.499 806.466 936.499 806.466" stroke="#586168" stroke-width="1.33341" stroke-miterlimit="22.9256" stroke-linecap="round" stroke-linejoin="round"/>
<path d="M941.488 806.468C941.488 806.468 942.323 805.334 943.861 805.334C945.398 805.334 946.935 805.899 946.935 805.899" stroke="#586168" stroke-width="1.33341" stroke-miterlimit="22.9256" stroke-linecap="round" stroke-linejoin="round"/>
<path d="M935.22 792.183C935.22 792.183 933.805 791.095 932.434 792.118" stroke="#586168" stroke-width="1.33341" stroke-miterlimit="22.9256" stroke-linecap="round" stroke-linejoin="round"/>
<path d="M904.664 766.117C904.664 766.117 911.389 750.204 913.823 747.85" stroke="#586168" stroke-width="1.33341" stroke-miterlimit="22.9256" stroke-linecap="round" stroke-linejoin="round"/>
<path d="M922.73 762.019C922.73 762.019 929.862 744.857 939.06 744.857C948.258 744.857 959.552 750.491 959.552 750.491C959.552 750.491 962.115 749.725 962.115 744.857C962.115 739.99 962.115 736.915 962.115 736.915C962.115 736.915 957.503 734.611 954.555 733.97C951.61 733.33 946.936 733.97 946.936 733.97" stroke="#586168" stroke-width="1.33341" stroke-miterlimit="22.9256" stroke-linecap="round" stroke-linejoin="round"/>
<path fill-rule="evenodd" clip-rule="evenodd" d="M775.842 221.389H826.603C831.307 221.389 835.158 217.542 835.158 212.835V163.051C835.158 158.347 831.307 154.496 826.603 154.496H775.842C771.139 154.496 767.285 158.347 767.285 163.051V212.835C767.285 217.542 771.139 221.389 775.842 221.389Z" fill="white"/>
<path d="M775.842 221.389H826.603C831.307 221.389 835.158 217.542 835.158 212.835V163.051C835.158 158.347 831.307 154.496 826.603 154.496H775.842C771.139 154.496 767.285 158.347 767.285 163.051V212.835C767.285 217.542 771.139 221.389 775.842 221.389Z" stroke="#586168" stroke-width="1.33341" stroke-miterlimit="22.9256"/>
<path fill-rule="evenodd" clip-rule="evenodd" d="M835.081 169.883V169.889C837.075 169.889 838.698 171.505 838.704 173.499H838.758V203.462C838.765 205.457 837.149 207.075 835.155 207.082H835.148C833.154 207.082 831.529 205.467 831.518 203.473L831.469 173.509C831.469 171.515 833.084 169.89 835.081 169.883Z" fill="white"/>
<path d="M835.081 169.883V169.889C837.075 169.889 838.698 171.505 838.704 173.499H838.758V203.462C838.765 205.457 837.149 207.075 835.155 207.082H835.148C833.154 207.082 831.529 205.467 831.518 203.473L831.469 173.509C831.469 171.515 833.084 169.89 835.081 169.883Z" stroke="#586168" stroke-width="1.33341" stroke-miterlimit="10" stroke-linecap="round" stroke-linejoin="round"/>
<path fill-rule="evenodd" clip-rule="evenodd" d="M767.25 169.883V169.889C769.243 169.889 770.87 171.505 770.876 173.499H770.927V203.462C770.936 205.457 769.321 207.075 767.323 207.082H767.317C765.323 207.082 763.7 205.467 763.69 203.473L763.641 173.509C763.641 171.515 765.256 169.89 767.25 169.883Z" fill="white"/>
<path d="M767.25 169.883V169.889C769.243 169.889 770.87 171.505 770.876 173.499H770.927V203.462C770.936 205.457 769.321 207.075 767.323 207.082H767.317C765.323 207.082 763.7 205.467 763.69 203.473L763.641 173.509C763.641 171.515 765.256 169.89 767.25 169.883Z" stroke="#586168" stroke-width="1.33341" stroke-miterlimit="10" stroke-linecap="round" stroke-linejoin="round"/>
<path fill-rule="evenodd" clip-rule="evenodd" d="M826.057 227.915C826.057 227.915 818.055 230.641 800.84 230.541C783.605 230.447 775.433 228.005 775.433 228.005C772.442 227.005 770.007 225.583 770 222.589C770 219.592 772.422 217.16 775.416 217.153H775.41C775.41 217.153 790.785 219.582 800.857 219.692C810.93 219.813 826.03 217.07 826.03 217.07C829.027 217.06 831.456 219.474 831.466 222.469L831.473 222.486C831.473 225.473 829.446 226.944 826.057 227.915Z" fill="white"/>
<path d="M826.057 227.915C826.057 227.915 818.055 230.641 800.84 230.541C783.605 230.447 775.433 228.005 775.433 228.005C772.442 227.005 770.007 225.583 770 222.589C770 219.592 772.422 217.16 775.416 217.153H775.41C775.41 217.153 790.785 219.582 800.857 219.692C810.93 219.813 826.03 217.07 826.03 217.07C829.027 217.06 831.456 219.474 831.466 222.469L831.473 222.486C831.473 225.473 829.446 226.944 826.057 227.915Z" stroke="#586168" stroke-width="1.33341" stroke-miterlimit="10" stroke-linecap="round" stroke-linejoin="round"/>
<path fill-rule="evenodd" clip-rule="evenodd" d="M699 164.59H902.433V77H699V164.59Z" fill="white"/>
<path d="M699 164.59H902.433V77H699V164.59Z" stroke="#586168" stroke-width="1.33341" stroke-miterlimit="22.9256"/>
<path fill-rule="evenodd" clip-rule="evenodd" d="M799.699 143.295L853.395 152.103L856.151 135.288L802.46 126.48L799.699 143.295Z" fill="white"/>
<path d="M799.699 143.295L853.395 152.103L856.151 135.288L802.46 126.48L799.699 143.295Z" stroke="#586168" stroke-width="1.33341" stroke-miterlimit="22.9256"/>
<path fill-rule="evenodd" clip-rule="evenodd" d="M779.012 139.293C781.354 139.293 783.251 136.577 783.251 133.225C783.251 129.866 781.354 127.15 779.012 127.15C776.671 127.15 774.777 129.866 774.777 133.225C774.777 136.577 776.671 139.293 779.012 139.293Z" fill="white"/>
<path d="M779.012 139.293C781.354 139.293 783.251 136.577 783.251 133.225C783.251 129.866 781.354 127.15 779.012 127.15C776.671 127.15 774.777 129.866 774.777 133.225C774.777 136.577 776.671 139.293 779.012 139.293Z" stroke="#586168" stroke-width="1.33341" stroke-miterlimit="22.9256"/>
<path fill-rule="evenodd" clip-rule="evenodd" d="M805.113 96.0598L861.2 102.944L861.728 98.6519C862.017 96.291 860.323 94.1199 857.962 93.831L810.459 88.0028C808.097 87.7139 805.93 89.4062 805.642 91.7672L805.113 96.0598Z" fill="white"/>
<path d="M805.113 96.0598L861.2 102.944L861.728 98.6519C862.017 96.291 860.323 94.1199 857.962 93.831L810.459 88.0028C808.097 87.7139 805.93 89.4062 805.642 91.7672L805.113 96.0598Z" stroke="#586168" stroke-width="1.33341" stroke-miterlimit="22.9256"/>
<path fill-rule="evenodd" clip-rule="evenodd" d="M871.479 104.21L872.004 99.9171L795.267 90.498L794.738 94.7989L871.479 104.21Z" fill="white"/>
<path d="M871.479 104.21L872.004 99.9171L795.267 90.498L794.738 94.7989L871.479 104.21Z" stroke="#586168" stroke-width="1.33341" stroke-miterlimit="22.9256"/>
<path d="M564 1363.8C563.489 1398.66 554.388 1432.76 537.605 1462.67M378 1361.5L537.839 1463.5" stroke="#5D6162" stroke-width="1.5" stroke-miterlimit="3" stroke-linecap="round" stroke-linejoin="round"/>
<path d="M356.671 1037.5C381.962 1037.87 406.697 1044.48 428.399 1056.66M355 1172.5L429 1056.49" stroke="#5D6162" stroke-width="1.5" stroke-miterlimit="3" stroke-linecap="round" stroke-linejoin="round"/>
<path d="M236.064 1126.5C231.444 1126.5 227.79 1124.75 225.102 1121.25L227.496 1119.11C229.876 1122.02 232.746 1123.48 236.106 1123.48C237.926 1123.48 239.452 1122.95 240.684 1121.88C241.916 1120.82 242.532 1119.42 242.532 1117.68C242.532 1115.89 241.776 1114.51 240.264 1113.53C238.752 1112.52 236.764 1112.01 234.3 1112.01H232.41L231.738 1110.04L241.02 1099.58H226.656V1096.6H245.43V1099.04L236.19 1109.28C238.99 1109.51 241.3 1110.32 243.12 1111.72C244.968 1113.09 245.892 1115.07 245.892 1117.64C245.892 1120.22 244.94 1122.35 243.036 1124.03C241.16 1125.68 238.836 1126.5 236.064 1126.5ZM251.196 1131.12L250.692 1129.65C252.568 1128.95 253.506 1127.88 253.506 1126.42V1126H251.994V1121.59H255.858V1125.37C255.858 1127.05 255.48 1128.34 254.724 1129.23C253.996 1130.13 252.82 1130.76 251.196 1131.12ZM261.071 1126V1123.44L271.739 1114.03C274.035 1112.01 275.631 1110.33 276.527 1108.99C277.423 1107.65 277.871 1106.25 277.871 1104.79C277.871 1103.11 277.297 1101.75 276.149 1100.72C275.001 1099.68 273.601 1099.16 271.949 1099.16C270.353 1099.16 268.939 1099.57 267.707 1100.38C266.503 1101.19 265.285 1102.47 264.053 1104.2L261.617 1102.44C263.045 1100.31 264.557 1098.74 266.153 1097.73C267.749 1096.7 269.765 1096.18 272.201 1096.18C274.833 1096.18 277.003 1096.98 278.711 1098.57C280.447 1100.14 281.315 1102.14 281.315 1104.58C281.315 1106.6 280.769 1108.39 279.677 1109.96C278.585 1111.52 276.653 1113.54 273.881 1116L266.027 1122.98H281.609V1126H261.071ZM291.715 1126V1099.83L286.171 1101.56L285.373 1098.87L292.555 1096.39H294.991V1126H291.715Z" fill="#162B48"/>
<path d="M422.064 1296.5C417.444 1296.5 413.79 1294.75 411.102 1291.25L413.496 1289.11C415.876 1292.02 418.746 1293.48 422.106 1293.48C423.926 1293.48 425.452 1292.95 426.684 1291.88C427.916 1290.82 428.532 1289.42 428.532 1287.68C428.532 1285.89 427.776 1284.51 426.264 1283.53C424.752 1282.52 422.764 1282.01 420.3 1282.01H418.41L417.738 1280.04L427.02 1269.58H412.656V1266.6H431.43V1269.04L422.19 1279.28C424.99 1279.51 427.3 1280.32 429.12 1281.72C430.968 1283.09 431.892 1285.07 431.892 1287.64C431.892 1290.22 430.94 1292.35 429.036 1294.03C427.16 1295.68 424.836 1296.5 422.064 1296.5ZM437.196 1301.12L436.692 1299.65C438.568 1298.95 439.506 1297.88 439.506 1296.42V1296H437.994V1291.59H441.858V1295.37C441.858 1297.05 441.48 1298.34 440.724 1299.23C439.996 1300.13 438.82 1300.76 437.196 1301.12ZM449.988 1296L463.26 1269.62H447.09V1266.6H467.04V1269.08L453.684 1296H449.988ZM482.42 1296.5C478.892 1296.5 476.106 1295.34 474.062 1293.02C472.018 1290.69 470.996 1287.04 470.996 1282.06C470.996 1277.46 472.088 1273.66 474.272 1270.63C476.484 1267.61 479.466 1266.1 483.218 1266.1C486.27 1266.1 489.168 1267.22 491.912 1269.46L489.98 1272.02C487.684 1270.09 485.374 1269.12 483.05 1269.12C480.446 1269.12 478.36 1270.31 476.792 1272.69C475.224 1275.07 474.44 1278.16 474.44 1281.97V1282.1C476.484 1279.1 479.27 1277.6 482.798 1277.6C485.626 1277.6 488.02 1278.44 489.98 1280.12C491.968 1281.8 492.962 1284 492.962 1286.72C492.962 1289.55 491.954 1291.88 489.938 1293.73C487.922 1295.58 485.416 1296.5 482.42 1296.5ZM482.462 1293.56C484.59 1293.56 486.298 1292.92 487.586 1291.63C488.902 1290.34 489.56 1288.72 489.56 1286.76C489.56 1284.94 488.888 1283.44 487.544 1282.27C486.2 1281.06 484.478 1280.46 482.378 1280.46C480.25 1280.46 478.486 1281.12 477.086 1282.43C475.714 1283.72 475.028 1285.23 475.028 1286.97C475.028 1288.85 475.728 1290.41 477.128 1291.67C478.528 1292.93 480.306 1293.56 482.462 1293.56Z" fill="#162B48"/>
<path d="M311.727 719.504C307.835 719.504 304.335 717.95 301.227 714.842L303.411 712.448C306.183 715.136 308.969 716.48 311.769 716.48C313.869 716.48 315.577 715.864 316.893 714.632C318.209 713.4 318.867 711.818 318.867 709.886C318.867 708.066 318.181 706.582 316.809 705.434C315.465 704.286 313.715 703.712 311.559 703.712C309.543 703.712 307.485 704.272 305.385 705.392L303.159 703.922L303.999 689.6H320.925V692.666H306.897L306.267 702.074C308.255 701.206 310.187 700.772 312.063 700.772C315.003 700.772 317.425 701.598 319.329 703.25C321.261 704.874 322.227 707.072 322.227 709.844C322.227 712.7 321.247 715.024 319.287 716.816C317.327 718.608 314.807 719.504 311.727 719.504ZM327.154 724.124L326.65 722.654C328.526 721.954 329.464 720.876 329.464 719.42V719H327.952V714.59H331.816V718.37C331.816 720.05 331.438 721.338 330.682 722.234C329.954 723.13 328.778 723.76 327.154 724.124ZM347.403 719.504C344.267 719.504 341.243 718.3 338.331 715.892L340.263 713.33C342.643 715.43 345.051 716.48 347.487 716.48C350.091 716.48 352.191 715.318 353.787 712.994C355.411 710.642 356.223 707.632 356.223 703.964V703.586C354.263 706.722 351.491 708.29 347.907 708.29C344.883 708.29 342.419 707.436 340.515 705.728C338.611 703.992 337.659 701.78 337.659 699.092C337.659 696.264 338.653 693.898 340.641 691.994C342.629 690.062 345.163 689.096 348.243 689.096C351.715 689.096 354.473 690.258 356.517 692.582C358.589 694.906 359.625 698.574 359.625 703.586C359.625 708.262 358.491 712.084 356.223 715.052C353.955 718.02 351.015 719.504 347.403 719.504ZM348.285 705.434C350.441 705.434 352.191 704.762 353.535 703.418C354.907 702.074 355.593 700.506 355.593 698.714C355.593 696.81 354.893 695.228 353.493 693.968C352.093 692.68 350.301 692.036 348.117 692.036C345.989 692.036 344.281 692.722 342.993 694.094C341.705 695.438 341.061 697.076 341.061 699.008C341.061 700.884 341.733 702.424 343.077 703.628C344.421 704.832 346.157 705.434 348.285 705.434ZM376.192 719.504C372.664 719.504 369.878 718.342 367.834 716.018C365.79 713.694 364.768 710.04 364.768 705.056C364.768 700.464 365.86 696.656 368.044 693.632C370.256 690.608 373.238 689.096 376.99 689.096C380.042 689.096 382.94 690.216 385.684 692.456L383.752 695.018C381.456 693.086 379.146 692.12 376.822 692.12C374.218 692.12 372.132 693.31 370.564 695.69C368.996 698.07 368.212 701.164 368.212 704.972V705.098C370.256 702.102 373.042 700.604 376.57 700.604C379.398 700.604 381.792 701.444 383.752 703.124C385.74 704.804 386.734 707.002 386.734 709.718C386.734 712.546 385.726 714.884 383.71 716.732C381.694 718.58 379.188 719.504 376.192 719.504ZM376.234 716.564C378.362 716.564 380.07 715.92 381.358 714.632C382.674 713.344 383.332 711.72 383.332 709.76C383.332 707.94 382.66 706.442 381.316 705.266C379.972 704.062 378.25 703.46 376.15 703.46C374.022 703.46 372.258 704.118 370.858 705.434C369.486 706.722 368.8 708.234 368.8 709.97C368.8 711.846 369.5 713.414 370.9 714.674C372.3 715.934 374.078 716.564 376.234 716.564Z" fill="#162B48"/>
<path d="M810.518 386V359.834L804.974 361.556L804.176 358.868L811.358 356.39H813.794V386H810.518ZM832.039 386.504C828.511 386.504 825.725 385.342 823.681 383.018C821.637 380.694 820.615 377.04 820.615 372.056C820.615 367.464 821.707 363.656 823.891 360.632C826.103 357.608 829.085 356.096 832.837 356.096C835.889 356.096 838.787 357.216 841.531 359.456L839.599 362.018C837.303 360.086 834.993 359.12 832.669 359.12C830.065 359.12 827.979 360.31 826.411 362.69C824.843 365.07 824.059 368.164 824.059 371.972V372.098C826.103 369.102 828.889 367.604 832.417 367.604C835.245 367.604 837.639 368.444 839.599 370.124C841.587 371.804 842.581 374.002 842.581 376.718C842.581 379.546 841.573 381.884 839.557 383.732C837.541 385.58 835.035 386.504 832.039 386.504ZM832.081 383.564C834.209 383.564 835.917 382.92 837.205 381.632C838.521 380.344 839.179 378.72 839.179 376.76C839.179 374.94 838.507 373.442 837.163 372.266C835.819 371.062 834.097 370.46 831.997 370.46C829.869 370.46 828.105 371.118 826.705 372.434C825.333 373.722 824.647 375.234 824.647 376.97C824.647 378.846 825.347 380.414 826.747 381.674C828.147 382.934 829.925 383.564 832.081 383.564ZM847.682 391.124L847.178 389.654C849.054 388.954 849.992 387.876 849.992 386.42V386H848.48V381.59H852.344V385.37C852.344 387.05 851.966 388.338 851.21 389.234C850.482 390.13 849.306 390.76 847.682 391.124ZM857.557 386V383.438L868.225 374.03C870.521 372.014 872.117 370.334 873.013 368.99C873.909 367.646 874.357 366.246 874.357 364.79C874.357 363.11 873.783 361.752 872.635 360.716C871.487 359.68 870.087 359.162 868.435 359.162C866.839 359.162 865.425 359.568 864.193 360.38C862.989 361.192 861.771 362.466 860.539 364.202L858.103 362.438C859.531 360.31 861.043 358.742 862.639 357.734C864.235 356.698 866.251 356.18 868.687 356.18C871.319 356.18 873.489 356.978 875.197 358.574C876.933 360.142 877.801 362.144 877.801 364.58C877.801 366.596 877.255 368.388 876.163 369.956C875.071 371.524 873.139 373.54 870.367 376.004L862.513 382.976H878.095V386H857.557ZM888.202 386V359.834L882.658 361.556L881.86 358.868L889.042 356.39H891.478V386H888.202Z" fill="#162B48"/>
<path fill-rule="evenodd" clip-rule="evenodd" d="M479.447 475.951H532.89V535.841H479.461C475.906 535.841 473 532.934 473 529.379V482.398C473 478.85 475.903 475.951 479.447 475.951Z" fill="white"/>
<path d="M479.441 475.951V535.841" stroke="#586168" stroke-width="1.33341" stroke-miterlimit="22.9256"/>
<path d="M479.447 475.951H532.89V535.841H479.461C475.906 535.841 473 532.934 473 529.379V482.398C473 478.85 475.903 475.951 479.447 475.951Z" stroke="#586168" stroke-width="1.33341" stroke-miterlimit="22.9256"/>
<path fill-rule="evenodd" clip-rule="evenodd" d="M697.009 475.951H643.562V535.841H696.992C700.547 535.841 703.456 532.934 703.456 529.379V482.398C703.456 478.85 700.553 475.951 697.009 475.951Z" fill="white"/>
<path d="M697.009 475.951H643.562V535.841H696.992C700.547 535.841 703.456 532.934 703.456 529.379V482.398C703.456 478.85 700.553 475.951 697.009 475.951Z" stroke="#586168" stroke-width="1.33341" stroke-miterlimit="22.9256"/>
<path d="M697.016 475.951V535.841" stroke="#586168" stroke-width="1.33341" stroke-miterlimit="22.9256"/>
<path fill-rule="evenodd" clip-rule="evenodd" d="M558.285 397.115V450.562H618.175V397.133C618.175 393.578 615.265 390.672 611.714 390.672H564.732C561.184 390.672 558.285 393.571 558.285 397.115Z" fill="white"/>
<path d="M558.285 397.115V450.562H618.175V397.133C618.175 393.578 615.265 390.672 611.714 390.672H564.732C561.184 390.672 558.285 393.571 558.285 397.115Z" stroke="#586168" stroke-width="1.33341" stroke-miterlimit="22.9256"/>
<path d="M558.285 397.113H618.175" stroke="#586168" stroke-width="1.33341" stroke-miterlimit="22.9256"/>
<path fill-rule="evenodd" clip-rule="evenodd" d="M588.233 431.703C629.208 431.703 662.424 464.919 662.424 505.897C662.424 546.872 629.208 580.088 588.233 580.088C547.255 580.088 514.039 546.872 514.039 505.897C514.039 464.919 547.255 431.703 588.233 431.703Z" fill="white"/>
<path d="M588.233 431.703C629.208 431.703 662.424 464.919 662.424 505.897C662.424 546.872 629.208 580.088 588.233 580.088C547.255 580.088 514.039 546.872 514.039 505.897C514.039 464.919 547.255 431.703 588.233 431.703Z" stroke="#586168" stroke-width="1.33341" stroke-miterlimit="22.9256"/>
</g>
</g>
</g>
</g>
</g>
</g>
</g>
</g>
</g>
</g>
</g>
</g>
</g>
</g>
</g>
</g>
</g>
<defs>
<clipPath id="clip0_40_90046">
<rect width="1176" height="1465" fill="white"/>
</clipPath>
</defs>
</svg>
