<svg width="482" height="67" viewBox="0 0 482 67" fill="none" xmlns="http://www.w3.org/2000/svg">
<path d="M429.267 31.2977H438.225L450.978 0.396174H458.734L482 57.2588H475.282L466.867 36.7976H442.704L434.218 57.2588H427.499L435.939 36.7976H429.244V31.321L429.267 31.2977ZM445.014 31.2977H464.627L454.868 7.55061L445.014 31.2977ZM376.086 57.2588V0.396174H382.38V57.2588H376.086ZM416.844 0.396174L391.739 27.4292L421.818 57.2588H413.025L385.068 29.5266V25.5416L408.405 0.396174H416.844ZM323.212 0.396174V48.4497L352.348 0.396174H360.104V57.2588H353.833V9.27513L324.838 57.2588H316.941V0.396174H323.212ZM262.016 24.4696H292.331V0.396174H298.625V57.2588H292.331V30.5753H262.016V57.2588H255.745V0.396174H262.016V24.4696ZM242.804 28.8508C242.804 44.8143 231.041 57.7016 214.327 57.7016C197.614 57.7016 185.851 44.8143 185.851 28.8508C185.851 12.8873 197.614 0 214.327 0C231.041 0 242.804 12.8873 242.804 28.8508ZM192.122 28.8508C192.122 41.4584 201.056 51.5958 214.327 51.5958C227.599 51.5958 236.533 41.4584 236.533 28.8508C236.533 16.2431 227.599 6.10574 214.327 6.10574C201.056 6.10574 192.122 16.2431 192.122 28.8508ZM146.06 0.419478H184.295V6.54852H168.313V57.2821H162.019V6.54852H146.036V0.419478H146.06ZM99.2905 57.2821V0.419478H105.585V57.2821H99.2905ZM140.048 0.419478L114.943 27.4525L145.022 57.2821H136.23L108.272 29.5499V25.5649L131.609 0.419478H140.048ZM57.9197 23.4442H77.509V29.5732H57.9197V51.153H87.1739V57.2821H51.6256V0.419478H85.6888V6.54852H57.9197V23.4675V23.4442ZM1.1084 0.419478H40.8763V6.54852H24.1394V57.2821H17.8453V6.54852H1.1084V0.419478Z" fill="white"/>
<path fill-rule="evenodd" clip-rule="evenodd" d="M0 57.2356H87.1735V67.0001H0V57.2356Z" fill="#FFCC00"/>
</svg>
